<mxfile host="app.diagrams.net" modified="2024-03-02T10:50:30.639Z" agent="Mozilla/5.0 (Windows NT 10.0; Win64; x64) AppleWebKit/537.36 (KHTML, like Gecko) Chrome/121.0.0.0 Safari/537.36" etag="B8nda5Q32NHAKkcVMA4l" version="23.1.8" type="github">
  <diagram name="Página-1" id="86XQGuu94Q1awotNhT2k">
    <mxGraphModel dx="579" dy="626" grid="1" gridSize="10" guides="1" tooltips="1" connect="1" arrows="1" fold="1" page="1" pageScale="1" pageWidth="827" pageHeight="1169" math="0" shadow="0">
      <root>
        <mxCell id="0" />
        <mxCell id="1" parent="0" />
        <mxCell id="Pzt3QFIKM-Q0p7ZVDCu9-1" value="Artigo" style="rounded=0;whiteSpace=wrap;html=1;" vertex="1" parent="1">
          <mxGeometry x="20" y="120" width="120" height="60" as="geometry" />
        </mxCell>
        <mxCell id="Pzt3QFIKM-Q0p7ZVDCu9-4" value="Autor" style="rounded=0;whiteSpace=wrap;html=1;" vertex="1" parent="1">
          <mxGeometry x="340" y="120" width="120" height="60" as="geometry" />
        </mxCell>
        <mxCell id="Pzt3QFIKM-Q0p7ZVDCu9-5" value="tem" style="rhombus;whiteSpace=wrap;html=1;" vertex="1" parent="1">
          <mxGeometry x="210" y="120" width="60" height="60" as="geometry" />
        </mxCell>
        <mxCell id="Pzt3QFIKM-Q0p7ZVDCu9-6" value="Instituição" style="rounded=0;whiteSpace=wrap;html=1;" vertex="1" parent="1">
          <mxGeometry x="657" y="120" width="120" height="60" as="geometry" />
        </mxCell>
        <mxCell id="Pzt3QFIKM-Q0p7ZVDCu9-7" value="tem" style="rhombus;whiteSpace=wrap;html=1;" vertex="1" parent="1">
          <mxGeometry x="527" y="120" width="60" height="60" as="geometry" />
        </mxCell>
        <mxCell id="Pzt3QFIKM-Q0p7ZVDCu9-8" value="tem" style="rhombus;whiteSpace=wrap;html=1;" vertex="1" parent="1">
          <mxGeometry x="687" y="260" width="60" height="60" as="geometry" />
        </mxCell>
        <mxCell id="Pzt3QFIKM-Q0p7ZVDCu9-9" value="Participantes" style="rounded=0;whiteSpace=wrap;html=1;" vertex="1" parent="1">
          <mxGeometry x="657" y="360" width="120" height="60" as="geometry" />
        </mxCell>
        <mxCell id="Pzt3QFIKM-Q0p7ZVDCu9-10" value="IS-A" style="triangle;whiteSpace=wrap;html=1;direction=north;" vertex="1" parent="1">
          <mxGeometry x="677" y="480" width="80" height="60" as="geometry" />
        </mxCell>
        <mxCell id="Pzt3QFIKM-Q0p7ZVDCu9-11" value="Estudante" style="rounded=0;whiteSpace=wrap;html=1;" vertex="1" parent="1">
          <mxGeometry x="550" y="580" width="120" height="60" as="geometry" />
        </mxCell>
        <mxCell id="Pzt3QFIKM-Q0p7ZVDCu9-12" value="Não Estudante" style="rounded=0;whiteSpace=wrap;html=1;" vertex="1" parent="1">
          <mxGeometry x="757" y="580" width="120" height="60" as="geometry" />
        </mxCell>
        <mxCell id="Pzt3QFIKM-Q0p7ZVDCu9-15" value="Emite" style="rhombus;whiteSpace=wrap;html=1;" vertex="1" parent="1">
          <mxGeometry x="450" y="340" width="60" height="60" as="geometry" />
        </mxCell>
        <mxCell id="Pzt3QFIKM-Q0p7ZVDCu9-16" value="Comprovativo" style="ellipse;whiteSpace=wrap;html=1;" vertex="1" parent="1">
          <mxGeometry x="260" y="340" width="80" height="50" as="geometry" />
        </mxCell>
        <mxCell id="Pzt3QFIKM-Q0p7ZVDCu9-17" value="" style="endArrow=none;html=1;rounded=0;" edge="1" parent="1" source="Pzt3QFIKM-Q0p7ZVDCu9-16">
          <mxGeometry width="50" height="50" relative="1" as="geometry">
            <mxPoint x="420" y="430" as="sourcePoint" />
            <mxPoint x="450" y="370" as="targetPoint" />
          </mxGeometry>
        </mxCell>
        <mxCell id="Pzt3QFIKM-Q0p7ZVDCu9-18" value="" style="shape=link;html=1;rounded=0;exitX=1;exitY=0.5;exitDx=0;exitDy=0;entryX=0;entryY=0.5;entryDx=0;entryDy=0;" edge="1" parent="1" source="Pzt3QFIKM-Q0p7ZVDCu9-1" target="Pzt3QFIKM-Q0p7ZVDCu9-5">
          <mxGeometry width="100" relative="1" as="geometry">
            <mxPoint x="150" y="220" as="sourcePoint" />
            <mxPoint x="250" y="220" as="targetPoint" />
          </mxGeometry>
        </mxCell>
        <mxCell id="Pzt3QFIKM-Q0p7ZVDCu9-19" value="" style="shape=link;html=1;rounded=0;exitX=1;exitY=0.5;exitDx=0;exitDy=0;entryX=0;entryY=0.5;entryDx=0;entryDy=0;" edge="1" parent="1">
          <mxGeometry width="100" relative="1" as="geometry">
            <mxPoint x="270" y="149.5" as="sourcePoint" />
            <mxPoint x="340" y="149.5" as="targetPoint" />
          </mxGeometry>
        </mxCell>
        <mxCell id="Pzt3QFIKM-Q0p7ZVDCu9-20" value="" style="shape=link;html=1;rounded=0;exitX=1;exitY=0.5;exitDx=0;exitDy=0;entryX=0;entryY=0.5;entryDx=0;entryDy=0;" edge="1" parent="1">
          <mxGeometry width="100" relative="1" as="geometry">
            <mxPoint x="457" y="149.5" as="sourcePoint" />
            <mxPoint x="527" y="149.5" as="targetPoint" />
          </mxGeometry>
        </mxCell>
        <mxCell id="Pzt3QFIKM-Q0p7ZVDCu9-21" value="" style="endArrow=none;html=1;rounded=0;" edge="1" parent="1">
          <mxGeometry width="50" height="50" relative="1" as="geometry">
            <mxPoint x="587" y="148.5" as="sourcePoint" />
            <mxPoint x="660" y="149" as="targetPoint" />
          </mxGeometry>
        </mxCell>
        <mxCell id="Pzt3QFIKM-Q0p7ZVDCu9-22" value="" style="endArrow=none;html=1;rounded=0;entryX=0.5;entryY=0;entryDx=0;entryDy=0;exitX=0.5;exitY=1;exitDx=0;exitDy=0;" edge="1" parent="1" source="Pzt3QFIKM-Q0p7ZVDCu9-6" target="Pzt3QFIKM-Q0p7ZVDCu9-8">
          <mxGeometry width="50" height="50" relative="1" as="geometry">
            <mxPoint x="597" y="158.5" as="sourcePoint" />
            <mxPoint x="670" y="159" as="targetPoint" />
          </mxGeometry>
        </mxCell>
        <mxCell id="Pzt3QFIKM-Q0p7ZVDCu9-23" value="" style="shape=link;html=1;rounded=0;exitX=0.5;exitY=0;exitDx=0;exitDy=0;entryX=0.5;entryY=1;entryDx=0;entryDy=0;" edge="1" parent="1" source="Pzt3QFIKM-Q0p7ZVDCu9-9" target="Pzt3QFIKM-Q0p7ZVDCu9-8">
          <mxGeometry width="100" relative="1" as="geometry">
            <mxPoint x="657" y="350" as="sourcePoint" />
            <mxPoint x="727" y="350" as="targetPoint" />
          </mxGeometry>
        </mxCell>
        <mxCell id="Pzt3QFIKM-Q0p7ZVDCu9-24" value="" style="shape=link;html=1;rounded=0;exitX=1;exitY=0.5;exitDx=0;exitDy=0;entryX=0.5;entryY=1;entryDx=0;entryDy=0;" edge="1" parent="1" source="Pzt3QFIKM-Q0p7ZVDCu9-10" target="Pzt3QFIKM-Q0p7ZVDCu9-9">
          <mxGeometry width="100" relative="1" as="geometry">
            <mxPoint x="727" y="370" as="sourcePoint" />
            <mxPoint x="727" y="330" as="targetPoint" />
          </mxGeometry>
        </mxCell>
        <mxCell id="Pzt3QFIKM-Q0p7ZVDCu9-25" value="" style="endArrow=none;html=1;rounded=0;exitX=0.5;exitY=0;exitDx=0;exitDy=0;entryX=0;entryY=0.25;entryDx=0;entryDy=0;" edge="1" parent="1" source="Pzt3QFIKM-Q0p7ZVDCu9-11" target="Pzt3QFIKM-Q0p7ZVDCu9-10">
          <mxGeometry width="50" height="50" relative="1" as="geometry">
            <mxPoint x="620" y="560" as="sourcePoint" />
            <mxPoint x="710" y="563" as="targetPoint" />
          </mxGeometry>
        </mxCell>
        <mxCell id="Pzt3QFIKM-Q0p7ZVDCu9-26" value="" style="endArrow=none;html=1;rounded=0;exitX=0.5;exitY=0;exitDx=0;exitDy=0;entryX=0;entryY=0.75;entryDx=0;entryDy=0;" edge="1" parent="1" source="Pzt3QFIKM-Q0p7ZVDCu9-12" target="Pzt3QFIKM-Q0p7ZVDCu9-10">
          <mxGeometry width="50" height="50" relative="1" as="geometry">
            <mxPoint x="620" y="590" as="sourcePoint" />
            <mxPoint x="707" y="550" as="targetPoint" />
          </mxGeometry>
        </mxCell>
        <mxCell id="Pzt3QFIKM-Q0p7ZVDCu9-27" value="&lt;div&gt;&lt;u&gt;Num_registo&lt;/u&gt;&lt;/div&gt;&lt;div&gt;&lt;br&gt;&lt;/div&gt;" style="ellipse;whiteSpace=wrap;html=1;" vertex="1" parent="1">
          <mxGeometry x="10" y="240" width="80" height="50" as="geometry" />
        </mxCell>
        <mxCell id="Pzt3QFIKM-Q0p7ZVDCu9-28" value="" style="endArrow=none;html=1;rounded=0;entryX=0.25;entryY=1;entryDx=0;entryDy=0;" edge="1" parent="1" source="Pzt3QFIKM-Q0p7ZVDCu9-27" target="Pzt3QFIKM-Q0p7ZVDCu9-1">
          <mxGeometry width="50" height="50" relative="1" as="geometry">
            <mxPoint x="150" y="330" as="sourcePoint" />
            <mxPoint x="20" y="180.0000000000001" as="targetPoint" />
          </mxGeometry>
        </mxCell>
        <mxCell id="Pzt3QFIKM-Q0p7ZVDCu9-29" value="Titulo" style="ellipse;whiteSpace=wrap;html=1;" vertex="1" parent="1">
          <mxGeometry x="120" y="220" width="80" height="50" as="geometry" />
        </mxCell>
        <mxCell id="Pzt3QFIKM-Q0p7ZVDCu9-30" value="" style="endArrow=none;html=1;rounded=0;entryX=0.75;entryY=1;entryDx=0;entryDy=0;" edge="1" parent="1" source="Pzt3QFIKM-Q0p7ZVDCu9-29" target="Pzt3QFIKM-Q0p7ZVDCu9-1">
          <mxGeometry width="50" height="50" relative="1" as="geometry">
            <mxPoint x="260" y="310" as="sourcePoint" />
            <mxPoint x="290" y="250" as="targetPoint" />
          </mxGeometry>
        </mxCell>
        <mxCell id="Pzt3QFIKM-Q0p7ZVDCu9-31" value="" style="endArrow=none;html=1;rounded=0;entryX=0.5;entryY=0;entryDx=0;entryDy=0;exitX=0.25;exitY=1;exitDx=0;exitDy=0;" edge="1" parent="1" source="Pzt3QFIKM-Q0p7ZVDCu9-6" target="Pzt3QFIKM-Q0p7ZVDCu9-15">
          <mxGeometry width="50" height="50" relative="1" as="geometry">
            <mxPoint x="690" y="190" as="sourcePoint" />
            <mxPoint x="727" y="270" as="targetPoint" />
          </mxGeometry>
        </mxCell>
        <mxCell id="Pzt3QFIKM-Q0p7ZVDCu9-34" value="&lt;u&gt;Nome&lt;/u&gt;" style="ellipse;whiteSpace=wrap;html=1;" vertex="1" parent="1">
          <mxGeometry x="424" y="220" width="80" height="50" as="geometry" />
        </mxCell>
        <mxCell id="Pzt3QFIKM-Q0p7ZVDCu9-35" value="" style="endArrow=none;html=1;rounded=0;entryX=0.75;entryY=1;entryDx=0;entryDy=0;" edge="1" parent="1" source="Pzt3QFIKM-Q0p7ZVDCu9-34">
          <mxGeometry width="50" height="50" relative="1" as="geometry">
            <mxPoint x="564" y="310" as="sourcePoint" />
            <mxPoint x="414" y="180" as="targetPoint" />
          </mxGeometry>
        </mxCell>
        <mxCell id="Pzt3QFIKM-Q0p7ZVDCu9-36" value="Email" style="ellipse;whiteSpace=wrap;html=1;" vertex="1" parent="1">
          <mxGeometry x="330" y="220" width="80" height="50" as="geometry" />
        </mxCell>
        <mxCell id="Pzt3QFIKM-Q0p7ZVDCu9-37" value="" style="endArrow=none;html=1;rounded=0;entryX=0.5;entryY=1;entryDx=0;entryDy=0;" edge="1" parent="1" source="Pzt3QFIKM-Q0p7ZVDCu9-36" target="Pzt3QFIKM-Q0p7ZVDCu9-4">
          <mxGeometry width="50" height="50" relative="1" as="geometry">
            <mxPoint x="470" y="310" as="sourcePoint" />
            <mxPoint x="320" y="180" as="targetPoint" />
          </mxGeometry>
        </mxCell>
        <mxCell id="Pzt3QFIKM-Q0p7ZVDCu9-38" value="&lt;u&gt;Nome&lt;/u&gt;" style="ellipse;whiteSpace=wrap;html=1;" vertex="1" parent="1">
          <mxGeometry x="760" y="20" width="80" height="50" as="geometry" />
        </mxCell>
        <mxCell id="Pzt3QFIKM-Q0p7ZVDCu9-39" value="" style="endArrow=none;html=1;rounded=0;entryX=0.75;entryY=0;entryDx=0;entryDy=0;" edge="1" parent="1" source="Pzt3QFIKM-Q0p7ZVDCu9-38" target="Pzt3QFIKM-Q0p7ZVDCu9-6">
          <mxGeometry width="50" height="50" relative="1" as="geometry">
            <mxPoint x="922" y="310" as="sourcePoint" />
            <mxPoint x="772" y="180" as="targetPoint" />
            <Array as="points" />
          </mxGeometry>
        </mxCell>
        <mxCell id="Pzt3QFIKM-Q0p7ZVDCu9-40" value="Endereço" style="ellipse;whiteSpace=wrap;html=1;" vertex="1" parent="1">
          <mxGeometry x="630" y="20" width="80" height="50" as="geometry" />
        </mxCell>
        <mxCell id="Pzt3QFIKM-Q0p7ZVDCu9-41" value="" style="endArrow=none;html=1;rounded=0;entryX=0.5;entryY=0;entryDx=0;entryDy=0;" edge="1" parent="1" source="Pzt3QFIKM-Q0p7ZVDCu9-40" target="Pzt3QFIKM-Q0p7ZVDCu9-6">
          <mxGeometry width="50" height="50" relative="1" as="geometry">
            <mxPoint x="960" y="230" as="sourcePoint" />
            <mxPoint x="810" y="100" as="targetPoint" />
          </mxGeometry>
        </mxCell>
        <mxCell id="Pzt3QFIKM-Q0p7ZVDCu9-42" value="&lt;u&gt;Nome&lt;/u&gt;" style="ellipse;whiteSpace=wrap;html=1;" vertex="1" parent="1">
          <mxGeometry x="760" y="470" width="80" height="50" as="geometry" />
        </mxCell>
        <mxCell id="Pzt3QFIKM-Q0p7ZVDCu9-43" value="" style="endArrow=none;html=1;rounded=0;entryX=0.75;entryY=1;entryDx=0;entryDy=0;" edge="1" parent="1" source="Pzt3QFIKM-Q0p7ZVDCu9-42">
          <mxGeometry width="50" height="50" relative="1" as="geometry">
            <mxPoint x="922" y="550" as="sourcePoint" />
            <mxPoint x="772" y="420" as="targetPoint" />
          </mxGeometry>
        </mxCell>
        <mxCell id="Pzt3QFIKM-Q0p7ZVDCu9-44" value="Morada" style="ellipse;whiteSpace=wrap;html=1;" vertex="1" parent="1">
          <mxGeometry x="820" y="360" width="80" height="50" as="geometry" />
        </mxCell>
        <mxCell id="Pzt3QFIKM-Q0p7ZVDCu9-45" value="" style="endArrow=none;html=1;rounded=0;entryX=1;entryY=0.5;entryDx=0;entryDy=0;" edge="1" parent="1" source="Pzt3QFIKM-Q0p7ZVDCu9-44">
          <mxGeometry width="50" height="50" relative="1" as="geometry">
            <mxPoint x="960" y="480" as="sourcePoint" />
            <mxPoint x="777" y="400" as="targetPoint" />
          </mxGeometry>
        </mxCell>
        <mxCell id="Pzt3QFIKM-Q0p7ZVDCu9-46" value="Email" style="ellipse;whiteSpace=wrap;html=1;" vertex="1" parent="1">
          <mxGeometry x="793" y="310" width="80" height="50" as="geometry" />
        </mxCell>
        <mxCell id="Pzt3QFIKM-Q0p7ZVDCu9-47" value="" style="endArrow=none;html=1;rounded=0;entryX=1;entryY=0.25;entryDx=0;entryDy=0;" edge="1" parent="1" source="Pzt3QFIKM-Q0p7ZVDCu9-46" target="Pzt3QFIKM-Q0p7ZVDCu9-9">
          <mxGeometry width="50" height="50" relative="1" as="geometry">
            <mxPoint x="950" y="420" as="sourcePoint" />
            <mxPoint x="880" y="290" as="targetPoint" />
          </mxGeometry>
        </mxCell>
        <mxCell id="Pzt3QFIKM-Q0p7ZVDCu9-48" value="Data_inscriçao" style="ellipse;whiteSpace=wrap;html=1;" vertex="1" parent="1">
          <mxGeometry x="830" y="420" width="80" height="50" as="geometry" />
        </mxCell>
        <mxCell id="Pzt3QFIKM-Q0p7ZVDCu9-49" value="" style="endArrow=none;html=1;rounded=0;entryX=1;entryY=1;entryDx=0;entryDy=0;" edge="1" parent="1" source="Pzt3QFIKM-Q0p7ZVDCu9-48" target="Pzt3QFIKM-Q0p7ZVDCu9-9">
          <mxGeometry width="50" height="50" relative="1" as="geometry">
            <mxPoint x="1013" y="530" as="sourcePoint" />
            <mxPoint x="746.9999999999998" y="430" as="targetPoint" />
          </mxGeometry>
        </mxCell>
        <mxCell id="Pzt3QFIKM-Q0p7ZVDCu9-50" value="Referencia" style="ellipse;whiteSpace=wrap;html=1;" vertex="1" parent="1">
          <mxGeometry x="810" y="720" width="80" height="50" as="geometry" />
        </mxCell>
        <mxCell id="Pzt3QFIKM-Q0p7ZVDCu9-51" value="" style="endArrow=none;html=1;rounded=0;" edge="1" parent="1" source="Pzt3QFIKM-Q0p7ZVDCu9-50" target="Pzt3QFIKM-Q0p7ZVDCu9-12">
          <mxGeometry width="50" height="50" relative="1" as="geometry">
            <mxPoint x="970" y="810" as="sourcePoint" />
            <mxPoint x="1000" y="750" as="targetPoint" />
          </mxGeometry>
        </mxCell>
        <mxCell id="Pzt3QFIKM-Q0p7ZVDCu9-52" value="M" style="text;html=1;align=center;verticalAlign=middle;whiteSpace=wrap;rounded=0;" vertex="1" parent="1">
          <mxGeometry x="120" y="120" width="60" height="30" as="geometry" />
        </mxCell>
        <mxCell id="Pzt3QFIKM-Q0p7ZVDCu9-53" value="N" style="text;html=1;align=center;verticalAlign=middle;whiteSpace=wrap;rounded=0;" vertex="1" parent="1">
          <mxGeometry x="290" y="120" width="60" height="30" as="geometry" />
        </mxCell>
        <mxCell id="Pzt3QFIKM-Q0p7ZVDCu9-54" value="N" style="text;html=1;align=center;verticalAlign=middle;whiteSpace=wrap;rounded=0;" vertex="1" parent="1">
          <mxGeometry x="444" y="120" width="60" height="30" as="geometry" />
        </mxCell>
        <mxCell id="Pzt3QFIKM-Q0p7ZVDCu9-55" value="1" style="text;html=1;align=center;verticalAlign=middle;whiteSpace=wrap;rounded=0;" vertex="1" parent="1">
          <mxGeometry x="610" y="120" width="60" height="30" as="geometry" />
        </mxCell>
        <mxCell id="Pzt3QFIKM-Q0p7ZVDCu9-56" value="1" style="text;html=1;align=center;verticalAlign=middle;whiteSpace=wrap;rounded=0;" vertex="1" parent="1">
          <mxGeometry x="617" y="170" width="60" height="30" as="geometry" />
        </mxCell>
        <mxCell id="Pzt3QFIKM-Q0p7ZVDCu9-57" value="1" style="text;html=1;align=center;verticalAlign=middle;whiteSpace=wrap;rounded=0;" vertex="1" parent="1">
          <mxGeometry x="717" y="180" width="60" height="30" as="geometry" />
        </mxCell>
        <mxCell id="Pzt3QFIKM-Q0p7ZVDCu9-58" value="N" style="text;html=1;align=center;verticalAlign=middle;whiteSpace=wrap;rounded=0;" vertex="1" parent="1">
          <mxGeometry x="520" y="555" width="60" height="30" as="geometry" />
        </mxCell>
        <mxCell id="Pzt3QFIKM-Q0p7ZVDCu9-59" value="" style="shape=link;html=1;rounded=0;exitX=0.5;exitY=1;exitDx=0;exitDy=0;" edge="1" parent="1" source="Pzt3QFIKM-Q0p7ZVDCu9-15" target="Pzt3QFIKM-Q0p7ZVDCu9-11">
          <mxGeometry width="100" relative="1" as="geometry">
            <mxPoint x="450" y="500" as="sourcePoint" />
            <mxPoint x="520" y="500" as="targetPoint" />
          </mxGeometry>
        </mxCell>
        <mxCell id="Pzt3QFIKM-Q0p7ZVDCu9-63" value="N" style="text;html=1;align=center;verticalAlign=middle;whiteSpace=wrap;rounded=0;" vertex="1" parent="1">
          <mxGeometry x="670" y="330" width="60" height="30" as="geometry" />
        </mxCell>
      </root>
    </mxGraphModel>
  </diagram>
</mxfile>
